<mxfile host="Electron" modified="2024-05-24T13:37:14.599Z" agent="Mozilla/5.0 (Windows NT 10.0; Win64; x64) AppleWebKit/537.36 (KHTML, like Gecko) draw.io/24.4.6 Chrome/124.0.6367.207 Electron/30.0.6 Safari/537.36" etag="8SuTh9bWrld9jURcAXHR" version="24.4.6" type="device" pages="3">
  <diagram id="C5RBs43oDa-KdzZeNtuy" name="draft">
    <mxGraphModel dx="733" dy="452" grid="1" gridSize="10" guides="1" tooltips="1" connect="1" arrows="1" fold="1" page="1" pageScale="1" pageWidth="827" pageHeight="1169" math="0" shadow="0">
      <root>
        <mxCell id="WIyWlLk6GJQsqaUBKTNV-0" />
        <mxCell id="WIyWlLk6GJQsqaUBKTNV-1" parent="WIyWlLk6GJQsqaUBKTNV-0" />
        <mxCell id="IdEsWJ247F_JbAYmASRn-0" value="Current Image" style="rounded=1;whiteSpace=wrap;html=1;fontSize=12;glass=0;strokeWidth=1;shadow=0;" vertex="1" parent="WIyWlLk6GJQsqaUBKTNV-1">
          <mxGeometry x="70" y="200" width="120" height="40" as="geometry" />
        </mxCell>
        <mxCell id="IdEsWJ247F_JbAYmASRn-1" value="" style="endArrow=classic;html=1;rounded=0;exitX=0.5;exitY=1;exitDx=0;exitDy=0;" edge="1" parent="WIyWlLk6GJQsqaUBKTNV-1" source="IdEsWJ247F_JbAYmASRn-0" target="IdEsWJ247F_JbAYmASRn-4">
          <mxGeometry width="50" height="50" relative="1" as="geometry">
            <mxPoint x="110" y="310" as="sourcePoint" />
            <mxPoint x="160" y="260" as="targetPoint" />
          </mxGeometry>
        </mxCell>
        <mxCell id="IdEsWJ247F_JbAYmASRn-2" style="edgeStyle=orthogonalEdgeStyle;rounded=0;orthogonalLoop=1;jettySize=auto;html=1;exitX=1;exitY=0.5;exitDx=0;exitDy=0;entryX=0;entryY=0.5;entryDx=0;entryDy=0;" edge="1" parent="WIyWlLk6GJQsqaUBKTNV-1" source="IdEsWJ247F_JbAYmASRn-0" target="IdEsWJ247F_JbAYmASRn-7">
          <mxGeometry relative="1" as="geometry" />
        </mxCell>
        <mxCell id="IdEsWJ247F_JbAYmASRn-3" style="edgeStyle=orthogonalEdgeStyle;rounded=0;orthogonalLoop=1;jettySize=auto;html=1;exitX=0.5;exitY=1;exitDx=0;exitDy=0;entryX=0.5;entryY=0;entryDx=0;entryDy=0;" edge="1" parent="WIyWlLk6GJQsqaUBKTNV-1" source="IdEsWJ247F_JbAYmASRn-4" target="IdEsWJ247F_JbAYmASRn-14">
          <mxGeometry relative="1" as="geometry">
            <mxPoint x="130" y="330" as="targetPoint" />
          </mxGeometry>
        </mxCell>
        <mxCell id="IdEsWJ247F_JbAYmASRn-4" value="fMRI&lt;div&gt;Experiment&lt;/div&gt;" style="shape=process;whiteSpace=wrap;html=1;backgroundOutline=1;" vertex="1" parent="WIyWlLk6GJQsqaUBKTNV-1">
          <mxGeometry x="85" y="270" width="90" height="40" as="geometry" />
        </mxCell>
        <mxCell id="IdEsWJ247F_JbAYmASRn-5" style="edgeStyle=orthogonalEdgeStyle;rounded=0;orthogonalLoop=1;jettySize=auto;html=1;exitX=1;exitY=0.5;exitDx=0;exitDy=0;entryX=0.001;entryY=0.331;entryDx=0;entryDy=0;entryPerimeter=0;" edge="1" parent="WIyWlLk6GJQsqaUBKTNV-1" source="IdEsWJ247F_JbAYmASRn-7" target="IdEsWJ247F_JbAYmASRn-17">
          <mxGeometry relative="1" as="geometry" />
        </mxCell>
        <mxCell id="IdEsWJ247F_JbAYmASRn-6" value="F&lt;sub&gt;E&lt;/sub&gt;" style="edgeLabel;html=1;align=center;verticalAlign=middle;resizable=0;points=[];" vertex="1" connectable="0" parent="IdEsWJ247F_JbAYmASRn-5">
          <mxGeometry x="-0.0772" y="-1" relative="1" as="geometry">
            <mxPoint x="1" y="-11" as="offset" />
          </mxGeometry>
        </mxCell>
        <mxCell id="IdEsWJ247F_JbAYmASRn-7" value="&lt;div&gt;Feature&lt;/div&gt;&lt;div&gt;Matrix&lt;/div&gt;" style="shape=internalStorage;whiteSpace=wrap;html=1;backgroundOutline=1;dx=10;dy=10;" vertex="1" parent="WIyWlLk6GJQsqaUBKTNV-1">
          <mxGeometry x="340" y="263.75" width="90" height="52.5" as="geometry" />
        </mxCell>
        <mxCell id="IdEsWJ247F_JbAYmASRn-8" value="" style="edgeStyle=orthogonalEdgeStyle;rounded=0;orthogonalLoop=1;jettySize=auto;html=1;" edge="1" parent="WIyWlLk6GJQsqaUBKTNV-1" source="IdEsWJ247F_JbAYmASRn-9" target="IdEsWJ247F_JbAYmASRn-12">
          <mxGeometry relative="1" as="geometry" />
        </mxCell>
        <mxCell id="IdEsWJ247F_JbAYmASRn-9" value="pre-process" style="shape=process;whiteSpace=wrap;html=1;backgroundOutline=1;" vertex="1" parent="WIyWlLk6GJQsqaUBKTNV-1">
          <mxGeometry x="210" y="345" width="85" height="20" as="geometry" />
        </mxCell>
        <mxCell id="IdEsWJ247F_JbAYmASRn-10" value="" style="edgeStyle=orthogonalEdgeStyle;rounded=0;orthogonalLoop=1;jettySize=auto;html=1;" edge="1" parent="WIyWlLk6GJQsqaUBKTNV-1" source="IdEsWJ247F_JbAYmASRn-12" target="IdEsWJ247F_JbAYmASRn-17">
          <mxGeometry relative="1" as="geometry" />
        </mxCell>
        <mxCell id="IdEsWJ247F_JbAYmASRn-11" value="R&lt;sub&gt;E&lt;/sub&gt;" style="edgeLabel;html=1;align=center;verticalAlign=middle;resizable=0;points=[];" vertex="1" connectable="0" parent="IdEsWJ247F_JbAYmASRn-10">
          <mxGeometry x="0.0514" y="1" relative="1" as="geometry">
            <mxPoint x="-9" y="-1" as="offset" />
          </mxGeometry>
        </mxCell>
        <mxCell id="IdEsWJ247F_JbAYmASRn-12" value="&lt;div&gt;Response&lt;/div&gt;&lt;div&gt;Matrix&lt;/div&gt;" style="shape=internalStorage;whiteSpace=wrap;html=1;backgroundOutline=1;dx=10;dy=10;" vertex="1" parent="WIyWlLk6GJQsqaUBKTNV-1">
          <mxGeometry x="320" y="328.75" width="90" height="52.5" as="geometry" />
        </mxCell>
        <mxCell id="IdEsWJ247F_JbAYmASRn-13" value="" style="edgeStyle=orthogonalEdgeStyle;rounded=0;orthogonalLoop=1;jettySize=auto;html=1;" edge="1" parent="WIyWlLk6GJQsqaUBKTNV-1" source="IdEsWJ247F_JbAYmASRn-14" target="IdEsWJ247F_JbAYmASRn-9">
          <mxGeometry relative="1" as="geometry" />
        </mxCell>
        <mxCell id="IdEsWJ247F_JbAYmASRn-14" value="fMRI Response" style="rounded=1;whiteSpace=wrap;html=1;fontSize=12;glass=0;strokeWidth=1;shadow=0;" vertex="1" parent="WIyWlLk6GJQsqaUBKTNV-1">
          <mxGeometry x="70" y="335" width="120" height="40" as="geometry" />
        </mxCell>
        <mxCell id="IdEsWJ247F_JbAYmASRn-15" value="" style="edgeStyle=orthogonalEdgeStyle;rounded=0;orthogonalLoop=1;jettySize=auto;html=1;" edge="1" parent="WIyWlLk6GJQsqaUBKTNV-1" source="IdEsWJ247F_JbAYmASRn-17" target="IdEsWJ247F_JbAYmASRn-18">
          <mxGeometry relative="1" as="geometry" />
        </mxCell>
        <mxCell id="IdEsWJ247F_JbAYmASRn-16" value="W&lt;sub&gt;E&lt;/sub&gt;" style="edgeLabel;html=1;align=center;verticalAlign=middle;resizable=0;points=[];labelBackgroundColor=none;" vertex="1" connectable="0" parent="IdEsWJ247F_JbAYmASRn-15">
          <mxGeometry x="-0.0707" relative="1" as="geometry">
            <mxPoint y="-9" as="offset" />
          </mxGeometry>
        </mxCell>
        <mxCell id="IdEsWJ247F_JbAYmASRn-17" value="Linear Regression&lt;div&gt;Model&lt;/div&gt;&lt;div&gt;&lt;br&gt;&lt;/div&gt;&lt;div&gt;R̂&lt;sub&gt;E&lt;/sub&gt;=F&lt;sub&gt;E&lt;/sub&gt; W&lt;sub&gt;E&lt;/sub&gt;&lt;br&gt;&lt;/div&gt;" style="shape=process;whiteSpace=wrap;html=1;backgroundOutline=1;size=0.05;" vertex="1" parent="WIyWlLk6GJQsqaUBKTNV-1">
          <mxGeometry x="470" y="253.75" width="120" height="111.25" as="geometry" />
        </mxCell>
        <mxCell id="IdEsWJ247F_JbAYmASRn-18" value="&lt;div style=&quot;line-height: 100%;&quot;&gt;Weight&lt;/div&gt;&lt;div style=&quot;line-height: 100%;&quot;&gt;Matrix&lt;/div&gt;&lt;div style=&quot;line-height: 50%;&quot;&gt;&lt;i style=&quot;background-color: initial;&quot;&gt;&lt;font style=&quot;font-size: 6px;&quot;&gt;of Task-t.&amp;nbsp;&lt;/font&gt;&lt;/i&gt;&lt;br&gt;&lt;/div&gt;" style="shape=internalStorage;whiteSpace=wrap;html=1;backgroundOutline=1;dx=10;dy=10;" vertex="1" parent="WIyWlLk6GJQsqaUBKTNV-1">
          <mxGeometry x="640" y="283.13" width="90" height="52.5" as="geometry" />
        </mxCell>
        <mxCell id="RpecQaRcazNDiAxaUeI7-1" value="Memory Images" style="rounded=1;whiteSpace=wrap;html=1;" vertex="1" parent="WIyWlLk6GJQsqaUBKTNV-1">
          <mxGeometry x="300" y="205" width="70" height="30" as="geometry" />
        </mxCell>
        <mxCell id="RpecQaRcazNDiAxaUeI7-2" value="" style="endArrow=none;html=1;rounded=0;entryX=0;entryY=0.5;entryDx=0;entryDy=0;" edge="1" parent="WIyWlLk6GJQsqaUBKTNV-1" target="RpecQaRcazNDiAxaUeI7-1">
          <mxGeometry width="50" height="50" relative="1" as="geometry">
            <mxPoint x="260" y="220" as="sourcePoint" />
            <mxPoint x="370" y="270" as="targetPoint" />
          </mxGeometry>
        </mxCell>
      </root>
    </mxGraphModel>
  </diagram>
  <diagram id="7G7FfqS3Q4HPgx7U_rpN" name="Encoder">
    <mxGraphModel dx="864" dy="526" grid="1" gridSize="10" guides="1" tooltips="1" connect="1" arrows="1" fold="1" page="1" pageScale="1" pageWidth="827" pageHeight="1169" math="0" shadow="0">
      <root>
        <mxCell id="0" />
        <mxCell id="1" parent="0" />
        <mxCell id="5RTG7HgVvlDDs3ImzxFN-1" value="Linear Regression&lt;div&gt;Model&lt;/div&gt;&lt;div&gt;&lt;br&gt;&lt;/div&gt;&lt;div&gt;R̂&lt;sub&gt;E&lt;/sub&gt;=F&lt;sub&gt;E&lt;/sub&gt; W&lt;sub&gt;E&lt;/sub&gt;&lt;br&gt;&lt;/div&gt;" style="shape=process;whiteSpace=wrap;html=1;backgroundOutline=1;size=0.05;" vertex="1" parent="1">
          <mxGeometry width="120" height="111.25" as="geometry" />
        </mxCell>
        <mxCell id="5RTG7HgVvlDDs3ImzxFN-3" value="&lt;font style=&quot;font-size: 20px;&quot;&gt;&lt;span style=&quot;text-wrap: wrap;&quot;&gt;F&lt;/span&gt;&lt;sub style=&quot;text-wrap: wrap;&quot;&gt;E&lt;/sub&gt;&lt;span style=&quot;text-wrap: wrap;&quot;&gt;&amp;nbsp;W&lt;/span&gt;&lt;sub style=&quot;text-wrap: wrap;&quot;&gt;E&amp;nbsp;&lt;/sub&gt;&lt;span style=&quot;text-wrap: wrap;&quot;&gt;=&amp;nbsp;&lt;/span&gt;&lt;span style=&quot;text-wrap: wrap;&quot;&gt;R̂&lt;/span&gt;&lt;sub style=&quot;text-wrap: wrap;&quot;&gt;E&lt;/sub&gt;&lt;/font&gt;" style="text;html=1;align=center;verticalAlign=middle;resizable=0;points=[];autosize=1;strokeColor=none;fillColor=none;" vertex="1" parent="1">
          <mxGeometry x="325" y="290" width="130" height="40" as="geometry" />
        </mxCell>
        <mxCell id="5RTG7HgVvlDDs3ImzxFN-7" value="" style="edgeStyle=orthogonalEdgeStyle;rounded=0;orthogonalLoop=1;jettySize=auto;html=1;" edge="1" parent="1" source="5RTG7HgVvlDDs3ImzxFN-4" target="5RTG7HgVvlDDs3ImzxFN-3">
          <mxGeometry relative="1" as="geometry">
            <mxPoint x="320" y="310" as="targetPoint" />
          </mxGeometry>
        </mxCell>
        <mxCell id="5RTG7HgVvlDDs3ImzxFN-4" value="F&lt;sub&gt;E&lt;/sub&gt;" style="rounded=1;whiteSpace=wrap;html=1;" vertex="1" parent="1">
          <mxGeometry x="240" y="290" width="40" height="40" as="geometry" />
        </mxCell>
        <mxCell id="5RTG7HgVvlDDs3ImzxFN-10" style="edgeStyle=orthogonalEdgeStyle;rounded=0;orthogonalLoop=1;jettySize=auto;html=1;exitX=1;exitY=0.5;exitDx=0;exitDy=0;entryX=0.907;entryY=-0.179;entryDx=0;entryDy=0;entryPerimeter=0;" edge="1" parent="1" source="5RTG7HgVvlDDs3ImzxFN-5" target="5RTG7HgVvlDDs3ImzxFN-9">
          <mxGeometry relative="1" as="geometry">
            <Array as="points">
              <mxPoint x="302" y="380" />
              <mxPoint x="302" y="340" />
              <mxPoint x="520" y="340" />
            </Array>
          </mxGeometry>
        </mxCell>
        <mxCell id="5RTG7HgVvlDDs3ImzxFN-5" value="&lt;sub&gt;&lt;span style=&quot;font-size: 12px;&quot;&gt;R&lt;/span&gt;E&lt;/sub&gt;" style="rounded=1;whiteSpace=wrap;html=1;" vertex="1" parent="1">
          <mxGeometry x="240" y="360" width="40" height="40" as="geometry" />
        </mxCell>
        <mxCell id="5RTG7HgVvlDDs3ImzxFN-8" value="" style="edgeStyle=orthogonalEdgeStyle;rounded=0;orthogonalLoop=1;jettySize=auto;html=1;" edge="1" parent="1" source="5RTG7HgVvlDDs3ImzxFN-6">
          <mxGeometry relative="1" as="geometry">
            <mxPoint x="374" y="290" as="targetPoint" />
            <Array as="points">
              <mxPoint x="374" y="290" />
            </Array>
          </mxGeometry>
        </mxCell>
        <mxCell id="5RTG7HgVvlDDs3ImzxFN-6" value="Random&lt;div&gt;Gen.&lt;/div&gt;" style="rhombus;whiteSpace=wrap;html=1;" vertex="1" parent="1">
          <mxGeometry x="334" y="210" width="80" height="70" as="geometry" />
        </mxCell>
        <mxCell id="5RTG7HgVvlDDs3ImzxFN-9" value="&lt;math style=&quot;font-size: 20px;&quot; xmlns=&quot;http://www.w3.org/1998/Math/MathML&quot; display=&quot;block&quot;&gt;&lt;mfrac&gt;&lt;mn&gt;1&lt;/mn&gt;&lt;mrow&gt;&lt;mi&gt;T&lt;/mi&gt;&lt;mi&gt;V&lt;/mi&gt;&lt;/mrow&gt;&lt;/mfrac&gt;&lt;mrow&gt;&lt;mstyle displaystyle=&quot;false&quot; scriptlevel=&quot;0&quot;&gt;&lt;munderover&gt;&lt;mo data-mjx-texclass=&quot;OP&quot;&gt;∑&lt;/mo&gt;&lt;mrow&gt;&lt;mi style=&quot;font-size: 20px;&quot;&gt;i&lt;/mi&gt;&lt;mo style=&quot;font-size: 20px;&quot;&gt;=&lt;/mo&gt;&lt;mn style=&quot;font-size: 20px;&quot;&gt;1&lt;/mn&gt;&lt;/mrow&gt;&lt;mrow&gt;&lt;mi style=&quot;font-size: 20px;&quot;&gt;T&lt;/mi&gt;&lt;/mrow&gt;&lt;/munderover&gt;&lt;/mstyle&gt;&lt;/mrow&gt;&lt;mrow&gt;&lt;mstyle displaystyle=&quot;false&quot; scriptlevel=&quot;0&quot;&gt;&lt;munderover&gt;&lt;mo data-mjx-texclass=&quot;OP&quot;&gt;∑&lt;/mo&gt;&lt;mrow&gt;&lt;mi style=&quot;font-size: 20px;&quot;&gt;j&lt;/mi&gt;&lt;mo style=&quot;font-size: 20px;&quot;&gt;=&lt;/mo&gt;&lt;mn style=&quot;font-size: 20px;&quot;&gt;1&lt;/mn&gt;&lt;/mrow&gt;&lt;mrow&gt;&lt;mi style=&quot;font-size: 20px;&quot;&gt;V&lt;/mi&gt;&lt;/mrow&gt;&lt;/munderover&gt;&lt;/mstyle&gt;&lt;/mrow&gt;&lt;mo stretchy=&quot;false&quot;&gt;(&lt;/mo&gt;&lt;msub&gt;&lt;mi&gt;R&lt;/mi&gt;&lt;mrow&gt;&lt;msub style=&quot;font-size: 20px;&quot;&gt;&lt;mi&gt;E&lt;/mi&gt;&lt;mrow&gt;&lt;mi style=&quot;font-size: 20px;&quot;&gt;i&lt;/mi&gt;&lt;mi style=&quot;font-size: 20px;&quot;&gt;j&lt;/mi&gt;&lt;/mrow&gt;&lt;/msub&gt;&lt;/mrow&gt;&lt;/msub&gt;&lt;mo&gt;−&lt;/mo&gt;&lt;mi&gt;R&lt;/mi&gt;&lt;msub&gt;&lt;mrow&gt;&lt;mo stretchy=&quot;false&quot;&gt;̂&lt;/mo&gt;&lt;/mrow&gt;&lt;mrow&gt;&lt;msub style=&quot;font-size: 20px;&quot;&gt;&lt;mi&gt;E&lt;/mi&gt;&lt;mrow&gt;&lt;mi style=&quot;font-size: 20px;&quot;&gt;i&lt;/mi&gt;&lt;mi style=&quot;font-size: 20px;&quot;&gt;j&lt;/mi&gt;&lt;/mrow&gt;&lt;/msub&gt;&lt;/mrow&gt;&lt;/msub&gt;&lt;mo stretchy=&quot;false&quot;&gt;)=MSE&lt;/mo&gt;&lt;/math&gt;" style="text;html=1;align=left;verticalAlign=middle;whiteSpace=wrap;rounded=0;" vertex="1" parent="1">
          <mxGeometry x="325" y="365" width="215" height="30" as="geometry" />
        </mxCell>
        <mxCell id="5RTG7HgVvlDDs3ImzxFN-11" value="" style="endArrow=classic;html=1;rounded=0;" edge="1" parent="1" source="5RTG7HgVvlDDs3ImzxFN-3">
          <mxGeometry width="50" height="50" relative="1" as="geometry">
            <mxPoint x="430" y="360" as="sourcePoint" />
            <mxPoint x="600" y="360" as="targetPoint" />
            <Array as="points">
              <mxPoint x="470" y="310" />
              <mxPoint x="600" y="310" />
            </Array>
          </mxGeometry>
        </mxCell>
        <mxCell id="5RTG7HgVvlDDs3ImzxFN-12" value="Mean Squared Erro均方误差" style="text;html=1;align=center;verticalAlign=middle;whiteSpace=wrap;rounded=0;" vertex="1" parent="1">
          <mxGeometry x="650" y="320" width="90" height="30" as="geometry" />
        </mxCell>
        <mxCell id="5RTG7HgVvlDDs3ImzxFN-13" value="&lt;math style=&quot;font-size: 20px;&quot; xmlns=&quot;http://www.w3.org/1998/Math/MathML&quot; display=&quot;block&quot;&gt;&lt;mi&gt;L&lt;/mi&gt;&lt;mi&gt;O&lt;/mi&gt;&lt;mi&gt;S&lt;/mi&gt;&lt;mi&gt;S&lt;/mi&gt;&lt;mo&gt;=&lt;/mo&gt;&lt;mi&gt;M&lt;/mi&gt;&lt;mi&gt;S&lt;/mi&gt;&lt;mi&gt;E&lt;/mi&gt;&lt;mo&gt;+&lt;/mo&gt;&lt;mi&gt;λ&lt;/mi&gt;&lt;msubsup&gt;&lt;mrow data-mjx-texclass=&quot;INNER&quot;&gt;&lt;mo data-mjx-texclass=&quot;OPEN&quot;&gt;∥&lt;/mo&gt;&lt;msub&gt;&lt;mi&gt;W&lt;/mi&gt;&lt;mrow&gt;&lt;mi style=&quot;font-size: 20px;&quot;&gt;E&lt;/mi&gt;&lt;/mrow&gt;&lt;/msub&gt;&lt;mo data-mjx-texclass=&quot;CLOSE&quot;&gt;∥&lt;/mo&gt;&lt;/mrow&gt;&lt;mrow&gt;&lt;mn style=&quot;font-size: 20px;&quot;&gt;2&lt;/mn&gt;&lt;/mrow&gt;&lt;mrow&gt;&lt;mn style=&quot;font-size: 20px;&quot;&gt;2&lt;/mn&gt;&lt;/mrow&gt;&lt;/msubsup&gt;&lt;/math&gt;" style="text;html=1;align=center;verticalAlign=middle;resizable=0;points=[];autosize=1;strokeColor=none;fillColor=none;" vertex="1" parent="1">
          <mxGeometry x="320" y="440" width="280" height="50" as="geometry" />
        </mxCell>
        <mxCell id="5RTG7HgVvlDDs3ImzxFN-14" value="" style="endArrow=classic;html=1;rounded=0;" edge="1" parent="1">
          <mxGeometry width="50" height="50" relative="1" as="geometry">
            <mxPoint x="680" y="390" as="sourcePoint" />
            <mxPoint x="420" y="440" as="targetPoint" />
            <Array as="points">
              <mxPoint x="680" y="420" />
              <mxPoint x="420" y="420" />
            </Array>
          </mxGeometry>
        </mxCell>
        <mxCell id="5RTG7HgVvlDDs3ImzxFN-15" value="&lt;math xmlns=&quot;http://www.w3.org/1998/Math/MathML&quot; display=&quot;block&quot;&gt;&lt;mo stretchy=&quot;false&quot;&gt;∥&lt;/mo&gt;&lt;msub&gt;&lt;mi&gt;W&lt;/mi&gt;&lt;mi&gt;E&lt;/mi&gt;&lt;/msub&gt;&lt;mo&gt;​&lt;/mo&gt;&lt;msubsup&gt;&lt;mo&gt;∥&lt;/mo&gt;&lt;mn&gt;2&lt;/mn&gt;&lt;mn&gt;2&lt;/mn&gt;&lt;/msubsup&gt;&lt;mo&gt;​&lt;/mo&gt;&lt;mo&gt;=&lt;/mo&gt;&lt;msubsup&gt;&lt;mo&gt;∑&lt;/mo&gt;&lt;mrow&gt;&lt;mi&gt;i&lt;/mi&gt;&lt;mo&gt;=&lt;/mo&gt;&lt;mn&gt;1&lt;/mn&gt;&lt;/mrow&gt;&lt;mrow&gt;&lt;mi&gt;n&lt;/mi&gt;&lt;/mrow&gt;&lt;/msubsup&gt;&lt;mo&gt;​&lt;/mo&gt;&lt;msubsup&gt;&lt;mi&gt;W&lt;/mi&gt;&lt;mrow&gt;&lt;mi&gt;E&lt;/mi&gt;&lt;mo&gt;,&lt;/mo&gt;&lt;mi&gt;i&lt;/mi&gt;&lt;/mrow&gt;&lt;mn&gt;2&lt;/mn&gt;&lt;/msubsup&gt;&lt;mo&gt;​&lt;/mo&gt;&lt;/math&gt;" style="text;html=1;align=center;verticalAlign=middle;resizable=0;points=[];autosize=1;strokeColor=none;fillColor=none;" vertex="1" parent="1">
          <mxGeometry x="620" y="450" width="190" height="30" as="geometry" />
        </mxCell>
        <mxCell id="5RTG7HgVvlDDs3ImzxFN-16" value="&lt;font style=&quot;font-size: 7px;&quot;&gt;这是权重矩阵 &lt;span class=&quot;math math-inline&quot;&gt;&lt;span class=&quot;katex&quot;&gt;&lt;span class=&quot;katex-mathml&quot;&gt;&lt;math xmlns=&quot;http://www.w3.org/1998/Math/MathML&quot;&gt;&lt;mrow&gt;&lt;msub&gt;&lt;mi&gt;W&lt;/mi&gt;&lt;mi&gt;E&lt;/mi&gt;&lt;/msub&gt;&lt;/mrow&gt;W_E&lt;/math&gt;&lt;/span&gt;&lt;span aria-hidden=&quot;true&quot; class=&quot;katex-html&quot;&gt;&lt;span class=&quot;base&quot;&gt;&lt;span class=&quot;strut&quot;&gt;&lt;/span&gt;&lt;span class=&quot;mord&quot;&gt;&lt;span class=&quot;mord mathnormal&quot;&gt;W&lt;/span&gt;&lt;span class=&quot;msupsub&quot;&gt;&lt;span class=&quot;vlist-t vlist-t2&quot;&gt;&lt;span class=&quot;vlist-r&quot;&gt;&lt;span class=&quot;vlist&quot;&gt;&lt;span class=&quot;pstrut&quot;&gt;&lt;/span&gt;&lt;span class=&quot;sizing reset-size6 size3 mtight&quot;&gt;&lt;span class=&quot;mord mathnormal mtight&quot;&gt;E&lt;/span&gt;&lt;/span&gt;&lt;/span&gt;&lt;span class=&quot;vlist-s&quot;&gt;​&lt;/span&gt;&lt;/span&gt;&lt;span class=&quot;vlist-r&quot;&gt;&lt;span class=&quot;vlist&quot;&gt;&lt;/span&gt;&lt;/span&gt;&lt;/span&gt;&lt;/span&gt;&lt;/span&gt;&lt;/span&gt;&lt;/span&gt;&lt;/span&gt;&lt;/span&gt; 的 L2 范数的平方。L2 范数计算的是矩阵中所有元素的平方和的平方根&lt;/font&gt;" style="text;html=1;align=center;verticalAlign=middle;resizable=0;points=[];autosize=1;strokeColor=none;fillColor=none;" vertex="1" parent="1">
          <mxGeometry x="610" y="470" width="310" height="30" as="geometry" />
        </mxCell>
        <mxCell id="5RTG7HgVvlDDs3ImzxFN-17" value="" style="endArrow=classic;html=1;rounded=0;exitX=0.497;exitY=0.003;exitDx=0;exitDy=0;exitPerimeter=0;entryX=0.729;entryY=-0.003;entryDx=0;entryDy=0;entryPerimeter=0;" edge="1" parent="1" source="5RTG7HgVvlDDs3ImzxFN-3" target="5RTG7HgVvlDDs3ImzxFN-13">
          <mxGeometry width="50" height="50" relative="1" as="geometry">
            <mxPoint x="550" y="450" as="sourcePoint" />
            <mxPoint x="600" y="400" as="targetPoint" />
            <Array as="points">
              <mxPoint x="390" y="280" />
              <mxPoint x="760" y="280" />
              <mxPoint x="760" y="430" />
              <mxPoint x="524" y="430" />
            </Array>
          </mxGeometry>
        </mxCell>
        <mxCell id="5RTG7HgVvlDDs3ImzxFN-18" value="&lt;font style=&quot;font-size: 7px;&quot;&gt;\lamda由交叉验证法获得的最佳正则化参数&lt;/font&gt;" style="text;html=1;align=center;verticalAlign=middle;resizable=0;points=[];autosize=1;strokeColor=none;fillColor=none;" vertex="1" parent="1">
          <mxGeometry x="615" y="480" width="160" height="30" as="geometry" />
        </mxCell>
        <mxCell id="5RTG7HgVvlDDs3ImzxFN-19" value="&lt;math style=&quot;font-size: 20px;&quot; xmlns=&quot;http://www.w3.org/1998/Math/MathML&quot; display=&quot;block&quot;&gt;&lt;mrow&gt;&lt;mo&gt;∇&lt;/mo&gt;&lt;/mrow&gt;&lt;mi&gt;L&lt;/mi&gt;&lt;mi&gt;o&lt;/mi&gt;&lt;mi&gt;s&lt;/mi&gt;&lt;mi&gt;s&lt;/mi&gt;&lt;mo&gt;=&lt;/mo&gt;&lt;mo&gt;−&lt;/mo&gt;&lt;mn&gt;2&lt;/mn&gt;&lt;msubsup&gt;&lt;mi&gt;F&lt;/mi&gt;&lt;mi&gt;E&lt;/mi&gt;&lt;mi&gt;T&lt;/mi&gt;&lt;/msubsup&gt;&lt;mo stretchy=&quot;false&quot;&gt;(&lt;/mo&gt;&lt;mi&gt;R&lt;/mi&gt;&lt;mo&gt;−&lt;/mo&gt;&lt;mi&gt;R&lt;/mi&gt;&lt;mrow&gt;&lt;mo stretchy=&quot;false&quot;&gt;̂&lt;/mo&gt;&lt;/mrow&gt;&lt;mo stretchy=&quot;false&quot;&gt;)&lt;/mo&gt;&lt;mo&gt;+&lt;/mo&gt;&lt;mn&gt;2&lt;/mn&gt;&lt;mrow&gt;&lt;mo&gt;λ&lt;/mo&gt;&lt;/mrow&gt;&lt;msub&gt;&lt;mi&gt;W&lt;/mi&gt;&lt;mi&gt;E&lt;/mi&gt;&lt;/msub&gt;&lt;/math&gt;" style="text;html=1;align=center;verticalAlign=middle;resizable=0;points=[];autosize=1;strokeColor=none;fillColor=none;" vertex="1" parent="1">
          <mxGeometry x="320" y="520" width="350" height="40" as="geometry" />
        </mxCell>
        <mxCell id="5RTG7HgVvlDDs3ImzxFN-20" value="&lt;math style=&quot;font-size: 20px;&quot; xmlns=&quot;http://www.w3.org/1998/Math/MathML&quot; display=&quot;block&quot;&gt;&lt;msub&gt;&lt;mi&gt;W&lt;/mi&gt;&lt;mi&gt;E&lt;/mi&gt;&lt;/msub&gt;&lt;mo stretchy=&quot;false&quot;&gt;←&lt;/mo&gt;&lt;msub&gt;&lt;mi&gt;W&lt;/mi&gt;&lt;mi&gt;E&lt;/mi&gt;&lt;/msub&gt;&lt;mo&gt;−&lt;/mo&gt;&lt;mrow&gt;&lt;mo&gt;η&lt;/mo&gt;&lt;/mrow&gt;&lt;mrow&gt;&lt;mo&gt;∇&lt;/mo&gt;&lt;/mrow&gt;&lt;mi&gt;L&lt;/mi&gt;&lt;mi&gt;o&lt;/mi&gt;&lt;mi&gt;s&lt;/mi&gt;&lt;mi&gt;s&lt;/mi&gt;&lt;/math&gt;" style="text;html=1;align=center;verticalAlign=middle;resizable=0;points=[];autosize=1;strokeColor=none;fillColor=none;" vertex="1" parent="1">
          <mxGeometry x="325" y="584" width="230" height="30" as="geometry" />
        </mxCell>
        <mxCell id="5RTG7HgVvlDDs3ImzxFN-21" value="" style="endArrow=classic;html=1;rounded=0;exitX=0.123;exitY=1.059;exitDx=0;exitDy=0;exitPerimeter=0;entryX=0.091;entryY=0.026;entryDx=0;entryDy=0;entryPerimeter=0;" edge="1" parent="1" source="5RTG7HgVvlDDs3ImzxFN-13" target="5RTG7HgVvlDDs3ImzxFN-19">
          <mxGeometry width="50" height="50" relative="1" as="geometry">
            <mxPoint x="480" y="590" as="sourcePoint" />
            <mxPoint x="410" y="510" as="targetPoint" />
          </mxGeometry>
        </mxCell>
        <mxCell id="5RTG7HgVvlDDs3ImzxFN-22" value="&lt;font style=&quot;font-size: 6px;&quot;&gt;MSE的梯度与正则化项的梯度分别计算并相加&lt;/font&gt;" style="text;html=1;align=center;verticalAlign=middle;resizable=0;points=[];autosize=1;strokeColor=none;fillColor=none;" vertex="1" parent="1">
          <mxGeometry x="650" y="528" width="140" height="30" as="geometry" />
        </mxCell>
        <mxCell id="5RTG7HgVvlDDs3ImzxFN-23" value="" style="endArrow=classic;html=1;rounded=0;exitX=0.12;exitY=1.026;exitDx=0;exitDy=0;exitPerimeter=0;entryX=0.865;entryY=-0.019;entryDx=0;entryDy=0;entryPerimeter=0;" edge="1" parent="1" source="5RTG7HgVvlDDs3ImzxFN-19" target="5RTG7HgVvlDDs3ImzxFN-20">
          <mxGeometry width="50" height="50" relative="1" as="geometry">
            <mxPoint x="410" y="600" as="sourcePoint" />
            <mxPoint x="460" y="550" as="targetPoint" />
            <Array as="points">
              <mxPoint x="362" y="570" />
              <mxPoint x="524" y="570" />
            </Array>
          </mxGeometry>
        </mxCell>
        <mxCell id="5RTG7HgVvlDDs3ImzxFN-24" value="&lt;font style=&quot;font-size: 7px;&quot;&gt;学习率的计算没有说明，但可能是经验法则与多次试验得到的&lt;/font&gt;" style="text;html=1;align=center;verticalAlign=middle;resizable=0;points=[];autosize=1;strokeColor=none;fillColor=none;" vertex="1" parent="1">
          <mxGeometry x="565" y="584" width="210" height="30" as="geometry" />
        </mxCell>
        <mxCell id="5RTG7HgVvlDDs3ImzxFN-25" value="" style="shape=flexArrow;endArrow=classic;html=1;rounded=0;exitX=0.1;exitY=1.067;exitDx=0;exitDy=0;exitPerimeter=0;" edge="1" parent="1" source="5RTG7HgVvlDDs3ImzxFN-20" target="5RTG7HgVvlDDs3ImzxFN-3">
          <mxGeometry width="50" height="50" relative="1" as="geometry">
            <mxPoint x="540" y="570" as="sourcePoint" />
            <mxPoint x="590" y="520" as="targetPoint" />
            <Array as="points">
              <mxPoint x="348" y="670" />
              <mxPoint x="950" y="670" />
              <mxPoint x="950" y="220" />
              <mxPoint x="480" y="220" />
            </Array>
          </mxGeometry>
        </mxCell>
        <mxCell id="5RTG7HgVvlDDs3ImzxFN-26" value="Text" style="text;html=1;align=center;verticalAlign=middle;whiteSpace=wrap;rounded=0;" vertex="1" parent="1">
          <mxGeometry x="540" y="430" width="60" height="30" as="geometry" />
        </mxCell>
        <mxCell id="5RTG7HgVvlDDs3ImzxFN-27" value="更新WE" style="text;html=1;align=center;verticalAlign=middle;resizable=0;points=[];autosize=1;strokeColor=none;fillColor=none;" vertex="1" parent="1">
          <mxGeometry x="770" y="230" width="70" height="30" as="geometry" />
        </mxCell>
      </root>
    </mxGraphModel>
  </diagram>
  <diagram id="ZcM9ePle4i9qBSCevHQY" name="Linear">
    <mxGraphModel dx="880" dy="542" grid="1" gridSize="10" guides="1" tooltips="1" connect="1" arrows="1" fold="1" page="1" pageScale="1" pageWidth="827" pageHeight="1169" math="0" shadow="0">
      <root>
        <mxCell id="0" />
        <mxCell id="1" parent="0" />
        <mxCell id="hceL9m0V6Z5sEmgvxns7-1" value="Linear Regression&lt;div&gt;Model&lt;/div&gt;&lt;div&gt;&lt;br&gt;&lt;/div&gt;&lt;div&gt;&lt;p&gt;&lt;span class=&quot;math math-inline&quot;&gt;&lt;span class=&quot;katex&quot;&gt;&lt;span aria-hidden=&quot;true&quot; class=&quot;katex-html&quot;&gt;&lt;span class=&quot;base&quot;&gt;&lt;span class=&quot;mord mathbf&quot;&gt;R&lt;/span&gt;&lt;span class=&quot;mspace&quot;&gt;&lt;/span&gt;&lt;span class=&quot;mrel&quot;&gt;=&lt;/span&gt;&lt;span class=&quot;mspace&quot;&gt;&lt;/span&gt;&lt;/span&gt;&lt;span class=&quot;base&quot;&gt;&lt;span class=&quot;strut&quot;&gt;&lt;/span&gt;&lt;span class=&quot;mord mathbf&quot;&gt;SW&lt;/span&gt;&lt;span class=&quot;mspace&quot;&gt;&lt;/span&gt;&lt;span class=&quot;mbin&quot;&gt;+&lt;/span&gt;&lt;span class=&quot;mspace&quot;&gt;&lt;/span&gt;&lt;/span&gt;&lt;span class=&quot;base&quot;&gt;&lt;span class=&quot;strut&quot;&gt;&lt;/span&gt;&lt;span class=&quot;mord mathbf&quot;&gt;e&lt;/span&gt;&lt;/span&gt;&lt;/span&gt;&lt;/span&gt;&lt;/span&gt;&lt;/p&gt;&lt;p&gt;&lt;/p&gt;&lt;/div&gt;" style="shape=process;whiteSpace=wrap;html=1;backgroundOutline=1;size=0.05;" vertex="1" parent="1">
          <mxGeometry width="120" height="111.25" as="geometry" />
        </mxCell>
        <mxCell id="hceL9m0V6Z5sEmgvxns7-2" value="&lt;font style=&quot;font-size: 20px;&quot;&gt;&lt;span style=&quot;text-wrap: wrap;&quot;&gt;F&lt;/span&gt;&lt;sub style=&quot;text-wrap: wrap;&quot;&gt;E&lt;/sub&gt;&lt;span style=&quot;text-wrap: wrap;&quot;&gt;&amp;nbsp;W&lt;/span&gt;&lt;sub style=&quot;text-wrap: wrap;&quot;&gt;E&amp;nbsp;&lt;/sub&gt;&lt;span style=&quot;text-wrap: wrap;&quot;&gt;=&amp;nbsp;&lt;/span&gt;&lt;span style=&quot;text-wrap: wrap;&quot;&gt;R̂&lt;/span&gt;&lt;sub style=&quot;text-wrap: wrap;&quot;&gt;E&lt;/sub&gt;&lt;/font&gt;" style="text;html=1;align=center;verticalAlign=middle;resizable=0;points=[];autosize=1;strokeColor=none;fillColor=none;" vertex="1" parent="1">
          <mxGeometry x="325" y="290" width="130" height="40" as="geometry" />
        </mxCell>
        <mxCell id="hceL9m0V6Z5sEmgvxns7-3" value="" style="edgeStyle=orthogonalEdgeStyle;rounded=0;orthogonalLoop=1;jettySize=auto;html=1;" edge="1" parent="1" source="hceL9m0V6Z5sEmgvxns7-4" target="hceL9m0V6Z5sEmgvxns7-2">
          <mxGeometry relative="1" as="geometry">
            <mxPoint x="320" y="310" as="targetPoint" />
          </mxGeometry>
        </mxCell>
        <mxCell id="hceL9m0V6Z5sEmgvxns7-4" value="F&lt;sub&gt;E&lt;/sub&gt;" style="rounded=1;whiteSpace=wrap;html=1;" vertex="1" parent="1">
          <mxGeometry x="240" y="290" width="40" height="40" as="geometry" />
        </mxCell>
        <mxCell id="hceL9m0V6Z5sEmgvxns7-5" style="edgeStyle=orthogonalEdgeStyle;rounded=0;orthogonalLoop=1;jettySize=auto;html=1;exitX=1;exitY=0.5;exitDx=0;exitDy=0;entryX=0.907;entryY=-0.179;entryDx=0;entryDy=0;entryPerimeter=0;" edge="1" parent="1" source="hceL9m0V6Z5sEmgvxns7-6" target="hceL9m0V6Z5sEmgvxns7-9">
          <mxGeometry relative="1" as="geometry">
            <Array as="points">
              <mxPoint x="302" y="380" />
              <mxPoint x="302" y="340" />
              <mxPoint x="520" y="340" />
            </Array>
          </mxGeometry>
        </mxCell>
        <mxCell id="hceL9m0V6Z5sEmgvxns7-6" value="&lt;sub&gt;&lt;span style=&quot;font-size: 12px;&quot;&gt;R&lt;/span&gt;E&lt;/sub&gt;" style="rounded=1;whiteSpace=wrap;html=1;" vertex="1" parent="1">
          <mxGeometry x="240" y="360" width="40" height="40" as="geometry" />
        </mxCell>
        <mxCell id="hceL9m0V6Z5sEmgvxns7-7" value="" style="edgeStyle=orthogonalEdgeStyle;rounded=0;orthogonalLoop=1;jettySize=auto;html=1;" edge="1" parent="1" source="hceL9m0V6Z5sEmgvxns7-8">
          <mxGeometry relative="1" as="geometry">
            <mxPoint x="374" y="290" as="targetPoint" />
            <Array as="points">
              <mxPoint x="374" y="290" />
            </Array>
          </mxGeometry>
        </mxCell>
        <mxCell id="hceL9m0V6Z5sEmgvxns7-8" value="Random&lt;div&gt;Gen.&lt;/div&gt;" style="rhombus;whiteSpace=wrap;html=1;" vertex="1" parent="1">
          <mxGeometry x="334" y="210" width="80" height="70" as="geometry" />
        </mxCell>
        <mxCell id="hceL9m0V6Z5sEmgvxns7-9" value="&lt;math display=&quot;block&quot; xmlns=&quot;http://www.w3.org/1998/Math/MathML&quot; style=&quot;font-size: 20px;&quot;&gt;&lt;mfrac&gt;&lt;mn&gt;1&lt;/mn&gt;&lt;mrow&gt;&lt;mi&gt;T&lt;/mi&gt;&lt;mi&gt;V&lt;/mi&gt;&lt;/mrow&gt;&lt;/mfrac&gt;&lt;mrow&gt;&lt;mstyle scriptlevel=&quot;0&quot; displaystyle=&quot;false&quot;&gt;&lt;munderover&gt;&lt;mo data-mjx-texclass=&quot;OP&quot;&gt;∑&lt;/mo&gt;&lt;mrow&gt;&lt;mi style=&quot;font-size: 20px;&quot;&gt;i&lt;/mi&gt;&lt;mo style=&quot;font-size: 20px;&quot;&gt;=&lt;/mo&gt;&lt;mn style=&quot;font-size: 20px;&quot;&gt;1&lt;/mn&gt;&lt;/mrow&gt;&lt;mrow&gt;&lt;mi style=&quot;font-size: 20px;&quot;&gt;T&lt;/mi&gt;&lt;/mrow&gt;&lt;/munderover&gt;&lt;/mstyle&gt;&lt;/mrow&gt;&lt;mrow&gt;&lt;mstyle scriptlevel=&quot;0&quot; displaystyle=&quot;false&quot;&gt;&lt;munderover&gt;&lt;mo data-mjx-texclass=&quot;OP&quot;&gt;∑&lt;/mo&gt;&lt;mrow&gt;&lt;mi style=&quot;font-size: 20px;&quot;&gt;j&lt;/mi&gt;&lt;mo style=&quot;font-size: 20px;&quot;&gt;=&lt;/mo&gt;&lt;mn style=&quot;font-size: 20px;&quot;&gt;1&lt;/mn&gt;&lt;/mrow&gt;&lt;mrow&gt;&lt;mi style=&quot;font-size: 20px;&quot;&gt;V&lt;/mi&gt;&lt;/mrow&gt;&lt;/munderover&gt;&lt;/mstyle&gt;&lt;/mrow&gt;&lt;mo stretchy=&quot;false&quot;&gt;(&lt;/mo&gt;&lt;msub&gt;&lt;mi&gt;R&lt;/mi&gt;&lt;mrow&gt;&lt;msub style=&quot;font-size: 20px;&quot;&gt;&lt;mi&gt;E&lt;/mi&gt;&lt;mrow&gt;&lt;mi style=&quot;font-size: 20px;&quot;&gt;i&lt;/mi&gt;&lt;mi style=&quot;font-size: 20px;&quot;&gt;j&lt;/mi&gt;&lt;/mrow&gt;&lt;/msub&gt;&lt;/mrow&gt;&lt;/msub&gt;&lt;mo&gt;−&lt;/mo&gt;&lt;mi&gt;R&lt;/mi&gt;&lt;msub&gt;&lt;mrow&gt;&lt;mo stretchy=&quot;false&quot;&gt;̂&lt;/mo&gt;&lt;/mrow&gt;&lt;mrow&gt;&lt;msub style=&quot;font-size: 20px;&quot;&gt;&lt;mi&gt;E&lt;/mi&gt;&lt;mrow&gt;&lt;mi style=&quot;font-size: 20px;&quot;&gt;i&lt;/mi&gt;&lt;mi style=&quot;font-size: 20px;&quot;&gt;j&lt;/mi&gt;&lt;/mrow&gt;&lt;/msub&gt;&lt;/mrow&gt;&lt;/msub&gt;&lt;mo stretchy=&quot;false&quot;&gt;)=MSE&lt;/mo&gt;&lt;/math&gt;" style="text;html=1;align=left;verticalAlign=middle;whiteSpace=wrap;rounded=0;" vertex="1" parent="1">
          <mxGeometry x="325" y="365" width="215" height="30" as="geometry" />
        </mxCell>
        <mxCell id="hceL9m0V6Z5sEmgvxns7-10" value="" style="endArrow=classic;html=1;rounded=0;" edge="1" parent="1" source="hceL9m0V6Z5sEmgvxns7-2">
          <mxGeometry width="50" height="50" relative="1" as="geometry">
            <mxPoint x="430" y="360" as="sourcePoint" />
            <mxPoint x="600" y="360" as="targetPoint" />
            <Array as="points">
              <mxPoint x="470" y="310" />
              <mxPoint x="600" y="310" />
            </Array>
          </mxGeometry>
        </mxCell>
        <mxCell id="hceL9m0V6Z5sEmgvxns7-11" value="Mean Squared Erro均方误差" style="text;html=1;align=center;verticalAlign=middle;whiteSpace=wrap;rounded=0;" vertex="1" parent="1">
          <mxGeometry x="650" y="320" width="90" height="30" as="geometry" />
        </mxCell>
        <mxCell id="hceL9m0V6Z5sEmgvxns7-12" value="&lt;math style=&quot;font-size: 20px;&quot; xmlns=&quot;http://www.w3.org/1998/Math/MathML&quot; display=&quot;block&quot;&gt;&lt;mi&gt;L&lt;/mi&gt;&lt;mi&gt;O&lt;/mi&gt;&lt;mi&gt;S&lt;/mi&gt;&lt;mi&gt;S&lt;/mi&gt;&lt;mo&gt;=&lt;/mo&gt;&lt;mi&gt;M&lt;/mi&gt;&lt;mi&gt;S&lt;/mi&gt;&lt;mi&gt;E&lt;/mi&gt;&lt;mo&gt;+&lt;/mo&gt;&lt;mi&gt;λ&lt;/mi&gt;&lt;msubsup&gt;&lt;mrow data-mjx-texclass=&quot;INNER&quot;&gt;&lt;mo data-mjx-texclass=&quot;OPEN&quot;&gt;∥&lt;/mo&gt;&lt;msub&gt;&lt;mi&gt;W&lt;/mi&gt;&lt;mrow&gt;&lt;mi style=&quot;font-size: 20px;&quot;&gt;E&lt;/mi&gt;&lt;/mrow&gt;&lt;/msub&gt;&lt;mo data-mjx-texclass=&quot;CLOSE&quot;&gt;∥&lt;/mo&gt;&lt;/mrow&gt;&lt;mrow&gt;&lt;mn style=&quot;font-size: 20px;&quot;&gt;2&lt;/mn&gt;&lt;/mrow&gt;&lt;mrow&gt;&lt;mn style=&quot;font-size: 20px;&quot;&gt;2&lt;/mn&gt;&lt;/mrow&gt;&lt;/msubsup&gt;&lt;/math&gt;" style="text;html=1;align=center;verticalAlign=middle;resizable=0;points=[];autosize=1;strokeColor=none;fillColor=none;" vertex="1" parent="1">
          <mxGeometry x="320" y="440" width="280" height="50" as="geometry" />
        </mxCell>
        <mxCell id="hceL9m0V6Z5sEmgvxns7-13" value="" style="endArrow=classic;html=1;rounded=0;" edge="1" parent="1">
          <mxGeometry width="50" height="50" relative="1" as="geometry">
            <mxPoint x="680" y="390" as="sourcePoint" />
            <mxPoint x="420" y="440" as="targetPoint" />
            <Array as="points">
              <mxPoint x="680" y="420" />
              <mxPoint x="420" y="420" />
            </Array>
          </mxGeometry>
        </mxCell>
        <mxCell id="hceL9m0V6Z5sEmgvxns7-14" value="&lt;math xmlns=&quot;http://www.w3.org/1998/Math/MathML&quot; display=&quot;block&quot;&gt;&lt;mo stretchy=&quot;false&quot;&gt;∥&lt;/mo&gt;&lt;msub&gt;&lt;mi&gt;W&lt;/mi&gt;&lt;mi&gt;E&lt;/mi&gt;&lt;/msub&gt;&lt;mo&gt;​&lt;/mo&gt;&lt;msubsup&gt;&lt;mo&gt;∥&lt;/mo&gt;&lt;mn&gt;2&lt;/mn&gt;&lt;mn&gt;2&lt;/mn&gt;&lt;/msubsup&gt;&lt;mo&gt;​&lt;/mo&gt;&lt;mo&gt;=&lt;/mo&gt;&lt;msubsup&gt;&lt;mo&gt;∑&lt;/mo&gt;&lt;mrow&gt;&lt;mi&gt;i&lt;/mi&gt;&lt;mo&gt;=&lt;/mo&gt;&lt;mn&gt;1&lt;/mn&gt;&lt;/mrow&gt;&lt;mrow&gt;&lt;mi&gt;n&lt;/mi&gt;&lt;/mrow&gt;&lt;/msubsup&gt;&lt;mo&gt;​&lt;/mo&gt;&lt;msubsup&gt;&lt;mi&gt;W&lt;/mi&gt;&lt;mrow&gt;&lt;mi&gt;E&lt;/mi&gt;&lt;mo&gt;,&lt;/mo&gt;&lt;mi&gt;i&lt;/mi&gt;&lt;/mrow&gt;&lt;mn&gt;2&lt;/mn&gt;&lt;/msubsup&gt;&lt;mo&gt;​&lt;/mo&gt;&lt;/math&gt;" style="text;html=1;align=center;verticalAlign=middle;resizable=0;points=[];autosize=1;strokeColor=none;fillColor=none;" vertex="1" parent="1">
          <mxGeometry x="620" y="450" width="190" height="30" as="geometry" />
        </mxCell>
        <mxCell id="hceL9m0V6Z5sEmgvxns7-15" value="&lt;font style=&quot;font-size: 7px;&quot;&gt;这是权重矩阵 &lt;span class=&quot;math math-inline&quot;&gt;&lt;span class=&quot;katex&quot;&gt;&lt;span class=&quot;katex-mathml&quot;&gt;&lt;math xmlns=&quot;http://www.w3.org/1998/Math/MathML&quot;&gt;&lt;mrow&gt;&lt;msub&gt;&lt;mi&gt;W&lt;/mi&gt;&lt;mi&gt;E&lt;/mi&gt;&lt;/msub&gt;&lt;/mrow&gt;W_E&lt;/math&gt;&lt;/span&gt;&lt;span aria-hidden=&quot;true&quot; class=&quot;katex-html&quot;&gt;&lt;span class=&quot;base&quot;&gt;&lt;span class=&quot;strut&quot;&gt;&lt;/span&gt;&lt;span class=&quot;mord&quot;&gt;&lt;span class=&quot;mord mathnormal&quot;&gt;W&lt;/span&gt;&lt;span class=&quot;msupsub&quot;&gt;&lt;span class=&quot;vlist-t vlist-t2&quot;&gt;&lt;span class=&quot;vlist-r&quot;&gt;&lt;span class=&quot;vlist&quot;&gt;&lt;span class=&quot;pstrut&quot;&gt;&lt;/span&gt;&lt;span class=&quot;sizing reset-size6 size3 mtight&quot;&gt;&lt;span class=&quot;mord mathnormal mtight&quot;&gt;E&lt;/span&gt;&lt;/span&gt;&lt;/span&gt;&lt;span class=&quot;vlist-s&quot;&gt;​&lt;/span&gt;&lt;/span&gt;&lt;span class=&quot;vlist-r&quot;&gt;&lt;span class=&quot;vlist&quot;&gt;&lt;/span&gt;&lt;/span&gt;&lt;/span&gt;&lt;/span&gt;&lt;/span&gt;&lt;/span&gt;&lt;/span&gt;&lt;/span&gt;&lt;/span&gt; 的 L2 范数的平方。L2 范数计算的是矩阵中所有元素的平方和的平方根&lt;/font&gt;" style="text;html=1;align=center;verticalAlign=middle;resizable=0;points=[];autosize=1;strokeColor=none;fillColor=none;" vertex="1" parent="1">
          <mxGeometry x="610" y="470" width="310" height="30" as="geometry" />
        </mxCell>
        <mxCell id="hceL9m0V6Z5sEmgvxns7-16" value="" style="endArrow=classic;html=1;rounded=0;exitX=0.497;exitY=0.003;exitDx=0;exitDy=0;exitPerimeter=0;entryX=0.729;entryY=-0.003;entryDx=0;entryDy=0;entryPerimeter=0;" edge="1" parent="1" source="hceL9m0V6Z5sEmgvxns7-2" target="hceL9m0V6Z5sEmgvxns7-12">
          <mxGeometry width="50" height="50" relative="1" as="geometry">
            <mxPoint x="550" y="450" as="sourcePoint" />
            <mxPoint x="600" y="400" as="targetPoint" />
            <Array as="points">
              <mxPoint x="390" y="280" />
              <mxPoint x="760" y="280" />
              <mxPoint x="760" y="430" />
              <mxPoint x="524" y="430" />
            </Array>
          </mxGeometry>
        </mxCell>
        <mxCell id="hceL9m0V6Z5sEmgvxns7-17" value="&lt;font style=&quot;font-size: 7px;&quot;&gt;\lamda由交叉验证法获得的最佳正则化参数&lt;/font&gt;" style="text;html=1;align=center;verticalAlign=middle;resizable=0;points=[];autosize=1;strokeColor=none;fillColor=none;" vertex="1" parent="1">
          <mxGeometry x="615" y="480" width="160" height="30" as="geometry" />
        </mxCell>
        <mxCell id="hceL9m0V6Z5sEmgvxns7-18" value="&lt;math style=&quot;font-size: 20px;&quot; xmlns=&quot;http://www.w3.org/1998/Math/MathML&quot; display=&quot;block&quot;&gt;&lt;mrow&gt;&lt;mo&gt;∇&lt;/mo&gt;&lt;/mrow&gt;&lt;mi&gt;L&lt;/mi&gt;&lt;mi&gt;o&lt;/mi&gt;&lt;mi&gt;s&lt;/mi&gt;&lt;mi&gt;s&lt;/mi&gt;&lt;mo&gt;=&lt;/mo&gt;&lt;mo&gt;−&lt;/mo&gt;&lt;mn&gt;2&lt;/mn&gt;&lt;msubsup&gt;&lt;mi&gt;F&lt;/mi&gt;&lt;mi&gt;E&lt;/mi&gt;&lt;mi&gt;T&lt;/mi&gt;&lt;/msubsup&gt;&lt;mo stretchy=&quot;false&quot;&gt;(&lt;/mo&gt;&lt;mi&gt;R&lt;/mi&gt;&lt;mo&gt;−&lt;/mo&gt;&lt;mi&gt;R&lt;/mi&gt;&lt;mrow&gt;&lt;mo stretchy=&quot;false&quot;&gt;̂&lt;/mo&gt;&lt;/mrow&gt;&lt;mo stretchy=&quot;false&quot;&gt;)&lt;/mo&gt;&lt;mo&gt;+&lt;/mo&gt;&lt;mn&gt;2&lt;/mn&gt;&lt;mrow&gt;&lt;mo&gt;λ&lt;/mo&gt;&lt;/mrow&gt;&lt;msub&gt;&lt;mi&gt;W&lt;/mi&gt;&lt;mi&gt;E&lt;/mi&gt;&lt;/msub&gt;&lt;/math&gt;" style="text;html=1;align=center;verticalAlign=middle;resizable=0;points=[];autosize=1;strokeColor=none;fillColor=none;" vertex="1" parent="1">
          <mxGeometry x="320" y="520" width="350" height="40" as="geometry" />
        </mxCell>
        <mxCell id="hceL9m0V6Z5sEmgvxns7-19" value="&lt;math style=&quot;font-size: 20px;&quot; xmlns=&quot;http://www.w3.org/1998/Math/MathML&quot; display=&quot;block&quot;&gt;&lt;msub&gt;&lt;mi&gt;W&lt;/mi&gt;&lt;mi&gt;E&lt;/mi&gt;&lt;/msub&gt;&lt;mo stretchy=&quot;false&quot;&gt;←&lt;/mo&gt;&lt;msub&gt;&lt;mi&gt;W&lt;/mi&gt;&lt;mi&gt;E&lt;/mi&gt;&lt;/msub&gt;&lt;mo&gt;−&lt;/mo&gt;&lt;mrow&gt;&lt;mo&gt;η&lt;/mo&gt;&lt;/mrow&gt;&lt;mrow&gt;&lt;mo&gt;∇&lt;/mo&gt;&lt;/mrow&gt;&lt;mi&gt;L&lt;/mi&gt;&lt;mi&gt;o&lt;/mi&gt;&lt;mi&gt;s&lt;/mi&gt;&lt;mi&gt;s&lt;/mi&gt;&lt;/math&gt;" style="text;html=1;align=center;verticalAlign=middle;resizable=0;points=[];autosize=1;strokeColor=none;fillColor=none;" vertex="1" parent="1">
          <mxGeometry x="325" y="584" width="230" height="30" as="geometry" />
        </mxCell>
        <mxCell id="hceL9m0V6Z5sEmgvxns7-20" value="" style="endArrow=classic;html=1;rounded=0;exitX=0.123;exitY=1.059;exitDx=0;exitDy=0;exitPerimeter=0;entryX=0.091;entryY=0.026;entryDx=0;entryDy=0;entryPerimeter=0;" edge="1" parent="1" source="hceL9m0V6Z5sEmgvxns7-12" target="hceL9m0V6Z5sEmgvxns7-18">
          <mxGeometry width="50" height="50" relative="1" as="geometry">
            <mxPoint x="480" y="590" as="sourcePoint" />
            <mxPoint x="410" y="510" as="targetPoint" />
          </mxGeometry>
        </mxCell>
        <mxCell id="hceL9m0V6Z5sEmgvxns7-21" value="&lt;font style=&quot;font-size: 6px;&quot;&gt;MSE的梯度与正则化项的梯度分别计算并相加&lt;/font&gt;" style="text;html=1;align=center;verticalAlign=middle;resizable=0;points=[];autosize=1;strokeColor=none;fillColor=none;" vertex="1" parent="1">
          <mxGeometry x="650" y="528" width="140" height="30" as="geometry" />
        </mxCell>
        <mxCell id="hceL9m0V6Z5sEmgvxns7-22" value="" style="endArrow=classic;html=1;rounded=0;exitX=0.12;exitY=1.026;exitDx=0;exitDy=0;exitPerimeter=0;entryX=0.865;entryY=-0.019;entryDx=0;entryDy=0;entryPerimeter=0;" edge="1" parent="1" source="hceL9m0V6Z5sEmgvxns7-18" target="hceL9m0V6Z5sEmgvxns7-19">
          <mxGeometry width="50" height="50" relative="1" as="geometry">
            <mxPoint x="410" y="600" as="sourcePoint" />
            <mxPoint x="460" y="550" as="targetPoint" />
            <Array as="points">
              <mxPoint x="362" y="570" />
              <mxPoint x="524" y="570" />
            </Array>
          </mxGeometry>
        </mxCell>
        <mxCell id="hceL9m0V6Z5sEmgvxns7-23" value="&lt;font style=&quot;font-size: 7px;&quot;&gt;学习率的计算没有说明，但可能是经验法则与多次试验得到的&lt;/font&gt;" style="text;html=1;align=center;verticalAlign=middle;resizable=0;points=[];autosize=1;strokeColor=none;fillColor=none;" vertex="1" parent="1">
          <mxGeometry x="565" y="584" width="210" height="30" as="geometry" />
        </mxCell>
        <mxCell id="hceL9m0V6Z5sEmgvxns7-24" value="" style="shape=flexArrow;endArrow=classic;html=1;rounded=0;exitX=0.1;exitY=1.067;exitDx=0;exitDy=0;exitPerimeter=0;" edge="1" parent="1" source="hceL9m0V6Z5sEmgvxns7-19" target="hceL9m0V6Z5sEmgvxns7-2">
          <mxGeometry width="50" height="50" relative="1" as="geometry">
            <mxPoint x="540" y="570" as="sourcePoint" />
            <mxPoint x="590" y="520" as="targetPoint" />
            <Array as="points">
              <mxPoint x="348" y="670" />
              <mxPoint x="950" y="670" />
              <mxPoint x="950" y="220" />
              <mxPoint x="480" y="220" />
            </Array>
          </mxGeometry>
        </mxCell>
        <mxCell id="hceL9m0V6Z5sEmgvxns7-25" value="Text" style="text;html=1;align=center;verticalAlign=middle;whiteSpace=wrap;rounded=0;" vertex="1" parent="1">
          <mxGeometry x="540" y="430" width="60" height="30" as="geometry" />
        </mxCell>
        <mxCell id="hceL9m0V6Z5sEmgvxns7-26" value="更新WE" style="text;html=1;align=center;verticalAlign=middle;resizable=0;points=[];autosize=1;strokeColor=none;fillColor=none;" vertex="1" parent="1">
          <mxGeometry x="770" y="230" width="70" height="30" as="geometry" />
        </mxCell>
      </root>
    </mxGraphModel>
  </diagram>
</mxfile>
